<!DOCTYPE svg PUBLIC "-//W3C//DTD SVG 1.1//EN" "http://www.w3.org/Graphics/SVG/1.1/DTD/svg11.dtd">
<!-- Uploaded to: SVG Repo, www.svgrepo.com, Transformed by: SVG Repo Mixer Tools -->
<svg fill="#F50157" height="800px" width="800px" version="1.1" id="Layer_1" xmlns="http://www.w3.org/2000/svg" xmlns:xlink="http://www.w3.org/1999/xlink" viewBox="0 0 512.1 512.1" xml:space="preserve" stroke="#F50157">
<g id="SVGRepo_bgCarrier" stroke-width="0"/>
<g id="SVGRepo_tracerCarrier" stroke-linecap="round" stroke-linejoin="round"/>
<g id="SVGRepo_iconCarrier"> <g> <g> <path d="M493.45,264.3c-43.3-5.5-69.2-21.2-76.1-25.9c-7.2-4.9-16.8-4.9-24,0c-13.6,9.2-43.7,13.7-76.1,17.8 c-10.6,1.4-18.6,10.4-18.6,21.2v85.3c0,48.9,24,99.4,61.1,128.6c11.6,9.1,23.9,13.9,34.8,18.1l3,1.2c2.5,1,5.1,1.5,7.8,1.5 c2.6,0,5.3-0.5,7.8-1.5l3-1.2c10.9-4.2,23.2-9,34.8-18.1c36-28.3,61.1-83,61.1-133v-72.8C512.05,274.7,504.05,265.6,493.45,264.3z "/> </g> </g> <g> <g> <path d="M490.75,128h-64V85.3c0-11.8-9.5-21.3-21.3-21.3h-21.4V21.3c0-11.7-9.5-21.3-21.3-21.3h-213.4c-11.8,0-21.3,9.6-21.3,21.3 V64h-21.3c-11.8,0-21.3,9.6-21.3,21.3V128h-64c-11.9,0-21.4,9.6-21.4,21.3v341.3c0,11.8,9.5,21.4,21.3,21.4h297.7 c-39.2-38-63-93.4-63-149.3v-85.3c0-32.1,24-59.4,55.9-63.5c12.2-1.5,49.1-6.3,58.1-11.1c10-6.9,22.5-10.7,35.4-10.7 c12.9,0,25.4,3.8,36,11.1c2.1,1.4,21.9,14.3,57.4,18.8c4.6,0.6,9,1.8,13.2,3.3v-75.9C512.05,137.6,502.55,128,490.75,128z M170.75,128h-42.7v-21.3h42.7V128z M298.75,85.3V128h-85.3V85.3c0-11.8-9.5-21.3-21.3-21.3h-21.3V42.7h170.7V64h-21.5 C308.25,64,298.75,73.6,298.75,85.3z M384.05,128h-42.7v-21.3h42.7V128z"/> </g> </g> </g>
</svg>